<?xml version="1.0"?>
<svg xmlns:rdf="http://www.w3.org/1999/02/22-rdf-syntax-ns#" xmlns="http://www.w3.org/2000/svg" xmlns:cc="http://creativecommons.org/ns#" xmlns:xlink="http://www.w3.org/1999/xlink" xmlns:dc="http://purl.org/dc/elements/1.1/" xmlns:svg="http://www.w3.org/2000/svg" id="svg4455" viewBox="0 0 849.44 769.72" version="1.0">
  <g id="layer1" transform="translate(357.28 275.54)">
    <g id="g5829" transform="translate(-472.85 -238.5)">
      <path id="path5034" d="m334.04 350.63c0.47619 0 0.95238 0 0 0z" fill="#f00"/>
      <path id="path2838" d="m559.7 694.65c24.681-43.627 32.232-64.167 61.511-114.75 7.0037-12.1 5.9794-13.246 18.215-34.421 12.235-21.175 26.083-45.025 30.773-53 4.6897-7.975 9.8972-16.975 11.572-20 1.675-3.025 7.2342-12.62 12.354-21.322l9.3084-15.822-1.6179-3.1782c-0.88987-1.748-3.2198-5.4282-5.1776-8.1782-20.999-29.495-49.249-43.679-94.486-47.436-17.446-1.4492-35.251-1.3275-67.196 0.45919-54.969 3.0744-64.467 3.4592-85.605 3.4681-53.988 0.0226-91.809-7.1507-127.82-24.242-25.855-12.273-47.999-29.036-69-52.234l-56.758-65.079c-6.3915-17.986 0.25559-52.634 5.0071-73.919 4.8759-21.843 30.82-70.144 59.875-87.844 20.201-12.307 41.894-30.062 94.382-30.817l-1.7402-2.4024 31.895 37.236c31.285 32.032 69.391 46.287 123.76 46.298 26.683 0.005 50.245-2.5668 114.5-12.499 51.119-7.9016 75.315-10.083 101.5-9.1517 35.249 1.2541 59.006 7.9246 82.528 23.173 10.45 6.774 27.996 24.711 36.185 36.991 7.3856 11.076 15.72 27.867 21.213 42.736l3.5966 9.7364-5.8674 10.264c-3.227 5.645-12.073 21.064-19.657 34.264-7.5845 13.2-14.555 25.35-15.491 27-3.6231 6.3902-24.958 43.116-38.341 66-7.7196 13.2-15.452 26.475-17.182 29.5-6.1405 10.733-42.194 72.514-66.236 113.5-8.9544 15.265-41.094 70.555-44.468 76.5-1.405 2.475-8.5307 14.85-15.835 27.5-7.3041 12.65-15.186 26.375-17.516 30.5-10.378 18.375-22.113 43.744-23.06 44.842-24.717 0.0105-40.09 53.673-45.123 16.33z" fill="#f00"/>
      <path id="path2834" d="m448.18 663.84c-9.4022 19.242 16.237-32.636 36.082-71.409 19.845-38.772 47.128-92.357 46.839-92.646-0.90422-0.90422-12.694-3.1167-25.166-4.7226-15.132-1.9485-31.62-1.0511-67.973-5.0852-38.518-4.2743-82.048-16.445-100.26-25.853-30.068-15.536-64.826-44.255-84.182-67.629-16.462-19.88-44.472-61.978-53.123-96.568-18.227-72.875-3.4922-33.517 54.31 27.809 38.779 41.144 85.237 59.474 152.25 64.835 17.913 1.4332 64.877 0.64751 95.5-1.5978 30.813-2.2591 65.509-2.9705 79.165-1.6231 14.394 1.4202 28.444 4.901 36.913 9.1448 9.8945 4.9583 9.7003 3.7696 2.7542 16.858-10.389 19.575-62.34 113.63-62.34 113.63s-105.18 208.25-83.299 154.11c-11.298-1.8707-16.456-16.067-27.476-19.252z"/>
      <path id="path2848-1" stroke="#000" stroke-width="52.362" fill="#ffffff" d="m543.6 706.5c-130.29-76.03-305.54-205.75-372.62-344.17-42.76-98.56-44.45-227.48 34.57-308.71 66.57-72.936 186.58-86.288 266.67-28.294 27.04 19.269 35.32 31.304 59.71 53.669 26.22-22.647 71.85-57.948 108.48-71.092 89.15-36.326 204.82-8.5365 256.35 76.051 65.55 95.646 48.84 227.26-11.2 321.3-78.93 129.34-214.32 223.75-343.27 298.34-2.8376-1.9673-2.5569-2.7946 1.313 2.9106z"/>
    </g>
  </g>
  <metadata>
    <rdf:RDF>
      <cc:Work>
        <dc:format>image/svg+xml</dc:format>
        <dc:type rdf:resource="http://purl.org/dc/dcmitype/StillImage"/>
        <cc:license rdf:resource="http://creativecommons.org/licenses/publicdomain/"/>
        <dc:publisher>
          <cc:Agent rdf:about="http://openclipart.org/">
            <dc:title>Openclipart</dc:title>
          </cc:Agent>
        </dc:publisher>
        <dc:title>love antifa action</dc:title>
        <dc:date>2011-01-12T22:20:11</dc:date>
        <dc:description>action, aktion, antifa, antifaschistische, antifascist, clip art, clipart, heart, love, love, </dc:description>
        <dc:source>http://openclipart.org/detail/104521/love-antifa-action-by-worker</dc:source>
        <dc:creator>
          <cc:Agent>
            <dc:title>worker</dc:title>
          </cc:Agent>
        </dc:creator>
        <dc:subject>
          <rdf:Bag>
            <rdf:li>action</rdf:li>
            <rdf:li>aktion</rdf:li>
            <rdf:li>antifa</rdf:li>
            <rdf:li>antifaschistische</rdf:li>
            <rdf:li>antifascist</rdf:li>
            <rdf:li>clip art</rdf:li>
            <rdf:li>clipart</rdf:li>
            <rdf:li>heart</rdf:li>
            <rdf:li>love</rdf:li>
          </rdf:Bag>
        </dc:subject>
      </cc:Work>
      <cc:License rdf:about="http://creativecommons.org/licenses/publicdomain/">
        <cc:permits rdf:resource="http://creativecommons.org/ns#Reproduction"/>
        <cc:permits rdf:resource="http://creativecommons.org/ns#Distribution"/>
        <cc:permits rdf:resource="http://creativecommons.org/ns#DerivativeWorks"/>
      </cc:License>
    </rdf:RDF>
  </metadata>
</svg>
