<?xml version="1.0" encoding="UTF-8"?>
<svg width="1e3" height="600" version="1.1" viewBox="-50 -30 100 60" xmlns="http://www.w3.org/2000/svg">
 <rect x="-50" y="-30" width="100" height="60" fill="#d00"/>
 <circle r="22.5" fill="#fff"/>
 <path transform="rotate(45)" d="m-12-15v15h24v15m-27-3h15v-24h15" fill="none" stroke="#000" stroke-width="6"/>
 <path d="m2.369-22c-0.007774 0.004804-4.574 4.569-10.15 10.14l-10.13 10.13-2.45-2.451v4.067c0 2.237 0.002469 4.069 0.005469 4.072 0.003073 0.00306 1.836 0.005664 4.073 0.005664h4.067l-1.216-1.217c-0.6691-0.6691-1.217-1.221-1.217-1.226 0-0.005449 4.563-4.573 10.14-10.15l10.14-10.14-1.623-1.623c-0.9108-0.9108-1.629-1.619-1.637-1.614zm8.19 8.168-20.29 20.29-2.447-2.447v4.068c0 2.7 0.004581 4.07 0.01328 4.072 0.01081 0.0036 8.097 0.002624 8.119-9.76e-4 0.00362-6.07e-4 -0.5401-0.5478-1.208-1.216-0.6681-0.6682-1.212-1.222-1.21-1.23 0.002869-0.008608 4.566-4.576 10.14-10.15l10.13-10.13-3.251-3.251zm-30.3 3.052-0.01074 7.82e-4 -0.007031 0.03301c0.006088-0.01118 0.01167-0.02262 0.01777-0.03379zm38.48 5.129-20.29 20.29-1.228-1.228-1.228-1.228v4.074 4.074h4.074l4.074 1.96e-4 -1.212-1.212c-0.6664-0.6664-1.212-1.221-1.212-1.231 2.6e-6 -0.01089 4.561-4.581 10.14-10.16l10.14-10.14-3.249-3.249zm-24.9 27.26 0.005664 0.007031 0.01641-5.86e-4c-0.007376-0.002087-0.0147-0.004351-0.02207-0.006445z" fill="#d00"/>
</svg>
