<svg xmlns="http://www.w3.org/2000/svg" viewBox="0 0 36 36"><circle cx="18" cy="18" r="17"/><circle cx="18" cy="18" r="14" fill="none" stroke="#0f0" stroke-width="2"/><circle cx="18" cy="18" r="11" fill="none" stroke="#0f0"/><path fill="#0f0" d="M12 14c-2.2 0-4 1.8-4 4s1.8 4 4 4c1.1 0 2.1-.4 2.8-1.2l-1.4-1.4c-.4.4-.9.6-1.4.6-1.1 0-2-.9-2-2s.9-2 2-2c.5 0 1 .2 1.4.6l1.4-1.4c-.7-.8-1.7-1.2-2.8-1.2"/><path fill="#0f0" d="M18 14c-2.2 0-4 1.8-4 4s1.8 4 4 4c1.1 0 2.1-.4 2.8-1.2l-1.4-1.4c-.4.4-.9.6-1.4.6-1.1 0-2-.9-2-2s.9-2 2-2c.5 0 1 .2 1.4.6l1.4-1.4c-.7-.8-1.7-1.2-2.8-1.2"/><path fill="#0f0" d="M24 14c-2.2 0-4 1.8-4 4s1.8 4 4 4c1.1 0 2.1-.4 2.8-1.2l-1.4-1.4c-.4.4-.9.6-1.4.6-1.1 0-2-.9-2-2s.9-2 2-2c.5 0 1 .2 1.4.6l1.4-1.4c-.7-.8-1.7-1.2-2.8-1.2"/></svg>