<svg xmlns="http://www.w3.org/2000/svg" viewBox="0 0 36 36"><path fill="#d99e82" d="M6 20c0 6.075 4.925 11 11 11h2c6.075 0 11-4.925 11-11V9H6z"/><path fill="#f5f8fa" d="M8 20a9 9 0 0 0 9 9h2a9 9 0 0 0 9-9v-9H8z"/><path fill="#ccd6dd" d="M28 11v9a9 9 0 0 1-9 9h-2a9 9 0 0 1-9-9v-9H6v9c0 6.075 4.925 11 11 11h2c6.075 0 11-4.925 11-11v-9z"/><path fill="#662113" d="M13 20a4 4 0 1 1 8 0 4 4 0 0 1-8 0"/><path fill="#0f0" d="M17 16a4 4 0 1 0 0 8 4 4 0 0 0 0-8m0 6a2 2 0 1 1 .001-4.001A2 2 0 0 1 17 22"/><path fill="#99aab5" d="M32 12a2 2 0 0 0-2-2h-2v4h2a2 2 0 0 0 2-2"/></svg>