<svg xmlns="http://www.w3.org/2000/svg" viewBox="0 0 36 36"><path fill="#2496ed" d="M32 17c-.5-.3-1.5-.5-2.5-.3-.2-1.3-1-2.5-2-3.3l-.4-.3-.3.4c-.4.6-.6 1.3-.7 2-.1 1 .1 2 .7 2.8-.4.2-.9.4-1.3.5q-1.35.3-2.7.3H2.5l-.1.5c-.2 1.4 0 2.8.5 4.2q.9 2.1 2.7 3.3c1.4.9 3.3 1.4 5.4 1.4q1.5 0 3-.3 2.1-.45 3.9-1.5c1-.6 1.9-1.3 2.6-2.2 1.2-1.4 2-3 2.5-4.7h.5c1 0 2-.3 2.8-.8.4-.3.8-.6 1-.9l.2-.3-.3-.2z"/><path fill="#2496ed" d="M5 16h3v3H5zm4 0h3v3H9zm4 0h3v3h-3zm4 0h3v3h-3zm-8-4h3v3H9zm4 0h3v3h-3zm4 0h3v3h-3zm4 4h3v3h-3zm-8-8h3v3h-3z"/></svg>