<svg xmlns="http://www.w3.org/2000/svg" viewBox="0 0 36 36"><rect width="32" height="24" x="2" y="8" fill="#66757f" rx="2"/><path fill="#292f33" d="M4 10h6v6H4zm7 0h6v6h-6zm7 0h6v6h-6zm7 0h6v6h-6zM4 17h6v6H4zm7 0h6v6h-6zm7 0h6v6h-6zm7 0h6v6h-6zM4 24h6v6H4zm7 0h6v6h-6zm7 0h6v6h-6zm7 0h6v6h-6z"/><path fill="#f4900c" d="M18 2c-3 0-5 4-5 8 0 3 2 5 3 6-1 1-1 2-1 3 0 2 1.5 3 3 3s3-1 3-3c0-1 0-2-1-3 1-1 3-3 3-6 0-4-2-8-5-8"/><path fill="#ffcc4d" d="M18 4c-2 0-3 3-3 6 0 2 1 3 2 4 0 1 1 2 1 2s1-1 1-2c1-1 2-2 2-4 0-3-1-6-3-6"/></svg>