<svg xmlns="http://www.w3.org/2000/svg" viewBox="0 0 36 36"><circle cx="18" cy="18" r="16" fill="#24292e"/><path fill="#fff" d="M18 4C10.3 4 4 10.3 4 18c0 6.2 4 11.4 9.6 13.3.7.1 1-.3 1-.7v-2.4c-3.9.8-4.7-1.9-4.7-1.9-.6-1.6-1.5-2-1.5-2-1.3-.9.1-.9.1-.9 1.4.1 2.1 1.4 2.1 1.4 1.2 2.1 3.2 1.5 4 1.1.1-.9.5-1.5.9-1.8-3.1-.4-6.4-1.6-6.4-7 0-1.5.5-2.8 1.4-3.8-.1-.4-.6-1.8.1-3.8 0 0 1.1-.4 3.7 1.4 1.1-.3 2.2-.4 3.4-.4 1.1 0 2.3.2 3.4.4 2.6-1.8 3.7-1.4 3.7-1.4.8 2 .3 3.4.1 3.8.9 1 1.4 2.3 1.4 3.8 0 5.4-3.3 6.6-6.4 7 .5.4 1 1.3 1 2.6v3.9c0 .4.3.8 1 .7C28 29.4 32 24.2 32 18c0-7.7-6.3-14-14-14"/></svg>