<svg xmlns="http://www.w3.org/2000/svg" viewBox="0 0 36 36"><circle cx="18" cy="18" r="14" fill="sienna"/><ellipse cx="18" cy="20" fill="#d2691e" rx="10" ry="8"/><ellipse cx="13" cy="14" rx="2" ry="3"/><ellipse cx="23" cy="14" rx="2" ry="3"/><ellipse cx="13.5" cy="13.5" fill="#fff" rx=".8" ry="1"/><ellipse cx="23.5" cy="13.5" fill="#fff" rx=".8" ry="1"/><path fill="#8b4513" d="M8 10c-2-4 0-8 4-8 2 0 3 1 4 2-2 0-4 2-4 4zm20 0c2-4 0-8-4-8-2 0-3 1-4 2 2 0 4 2 4 4z"/><ellipse cx="18" cy="22" fill="#666" rx="4" ry="3"/><path fill="#444" d="M16 22s1 2 2 2 2-2 2-2"/></svg>