<svg xmlns="http://www.w3.org/2000/svg" viewBox="0 0 36 36"><circle cx="18" cy="18" r="17" fill="#292f33"/><path fill="#66757f" d="M18 4C10.268 4 4 10.268 4 18s6.268 14 14 14 14-6.268 14-14S25.732 4 18 4m0 26c-6.627 0-12-5.373-12-12S11.373 6 18 6s12 5.373 12 12-5.373 12-12 12"/><circle cx="12" cy="16" r="3" fill="#0f0"/><circle cx="24" cy="16" r="3" fill="#0f0"/><rect width="16" height="2" x="10" y="24" fill="#0f0" rx="1"/><path fill="none" stroke="#0f0" stroke-width="1.5" d="M8 13c0-3 2-5 4-5m16 5c0-3-2-5-4-5"/></svg>