<svg xmlns="http://www.w3.org/2000/svg" viewBox="0 0 36 36"><rect width="32" height="32" x="2" y="2" fill="#1a1a1a" rx="4"/><rect width="12" height="10" x="4" y="4" fill="#2d2d2d" rx="1"/><path fill="#0f0" d="M5 5h10v8H5z" opacity=".8"/><path d="m6 7 2 2-2 2m3-1h3"/><rect width="14" height="8" x="18" y="4" fill="#444" rx="1"/><circle cx="21" cy="8" r="1.5" fill="red"/><circle cx="25" cy="8" r="1.5" fill="#0f0"/><circle cx="29" cy="8" r="1.5" fill="#06f"/><rect width="28" height="4" x="4" y="16" fill="#333" rx="1"/><path fill="#555" d="M6 17h4v2H6zm6 0h4v2h-4zm6 0h4v2h-4zm6 0h6v2h-6z"/><path fill="#0f0" d="m8 24 4 8H4z"/><circle cx="20" cy="28" r="4" fill="gold"/><path fill="#f60" d="M28 24s2 4 4 4-2 4-4 4-4-4-4-4 2-4 4-4"/></svg>