<svg xmlns="http://www.w3.org/2000/svg" viewBox="0 0 36 36"><rect width="34" height="18" x="1" y="10" fill="#292f33" rx="2"/><rect width="4" height="3" x="3" y="12" fill="#66757f" rx=".5"/><rect width="4" height="3" x="8" y="12" fill="#66757f" rx=".5"/><rect width="4" height="3" x="13" y="12" fill="#66757f" rx=".5"/><rect width="4" height="3" x="18" y="12" fill="#66757f" rx=".5"/><rect width="4" height="3" x="23" y="12" fill="#66757f" rx=".5"/><rect width="5" height="3" x="28" y="12" fill="#66757f" rx=".5"/><rect width="4" height="3" x="3" y="16" fill="#66757f" rx=".5"/><rect width="4" height="3" x="8" y="16" fill="#66757f" rx=".5"/><rect width="4" height="3" x="13" y="16" fill="#66757f" rx=".5"/><rect width="4" height="3" x="18" y="16" fill="#66757f" rx=".5"/><rect width="4" height="3" x="23" y="16" fill="#66757f" rx=".5"/><rect width="5" height="3" x="28" y="16" fill="#66757f" rx=".5"/><rect width="5" height="3" x="3" y="20" fill="#0f0" rx=".5"/><rect width="18" height="3" x="9" y="20" fill="#66757f" rx=".5"/><rect width="5" height="3" x="28" y="20" fill="#0f0" rx=".5"/></svg>