<svg xmlns="http://www.w3.org/2000/svg" viewBox="0 0 36 36"><ellipse cx="18" cy="20" rx="10" ry="12"/><ellipse cx="18" cy="18" fill="#fff" rx="8" ry="9"/><ellipse cx="14" cy="15" rx="2" ry="2.5"/><ellipse cx="22" cy="15" rx="2" ry="2.5"/><ellipse cx="14.5" cy="14.5" fill="#fff" rx=".8" ry="1"/><ellipse cx="22.5" cy="14.5" fill="#fff" rx=".8" ry="1"/><path fill="#f4900c" d="M18 19c-1 0-2 .5-2 1.5s1 2 2 2 2-1 2-2-1-1.5-2-1.5"/><path d="M12 26c-2 2-4 4-5 4s-1-1 0-2l4-4m13 2c2 2 4 4 5 4s1-1 0-2l-4-4"/></svg>