<svg xmlns="http://www.w3.org/2000/svg" viewBox="0 0 36 36"><path fill="#3088d4" d="M30 16.5c0-7.2-4.7-9.3-4.7-9.3C23 6 17.7 5.9 12.3 6h-.1C7.8 6 4.4 7.2 4.4 7.2.3 8.7 0 13.3 0 18v1.5c0 3.2.4 6.3 2.3 8.4 2.4 2.7 5.5 2.5 6.9 2.8 2.2.4 4.6.5 7.1.3 3.8-.4 7.2-1.6 7.2-1.6l-.2-2.8s-3.3 1-7 .9c-3.6-.1-7.4-.4-8-5-.1-.4-.1-1-.1-1.5 0 0 3.6.9 8.1.7 2.8-.1 5.7-.5 8.5-1.5 2.5-.9 4.7-2.7 5-4.7.4-3.1.2-7.6.2-7.6z"/><path fill="#fff" d="M25 20.5v-6c0-2.5-3-5.2-6-3.2-3.5-2.2-6.5.5-6.5 3v6.2h3v-6c0-1.4.8-2.1 1.8-2.1 1.3 0 2 .9 2 2.5v3.3h3v-3.3c0-1.6.6-2.5 2-2.5 1 0 1.7.7 1.7 2.1v6h3z"/></svg>