<svg xmlns="http://www.w3.org/2000/svg" viewBox="0 0 36 36"><path d="m4 8 4-6h20l4 6v24c0 2-2 4-4 4H8c-2 0-4-2-4-4z"/><path fill="#1a1a1a" d="M6 10h24v22c0 1-1 2-2 2H8c-1 0-2-1-2-2z"/><path fill="#0f0" d="m8 2 4 8H4zm20 0 4 8h-8z"/><circle cx="13" cy="18" r="4" fill="#0f0"/><circle cx="23" cy="18" r="4" fill="#0f0"/><circle cx="13" cy="18" r="2"/><circle cx="23" cy="18" r="2"/><ellipse cx="18" cy="24" fill="#0f0" rx="2" ry="1"/><path fill="none" stroke="#0f0" d="M16 26c1 1 3 1 4 0"/><path fill="none" stroke="#0f0" stroke-width=".5" d="M6 20H2m4 2H3m27-2h4m-4 2h3"/></svg>