<svg xmlns="http://www.w3.org/2000/svg" viewBox="0 0 36 36"><circle cx="18" cy="18" r="17" fill="#ffcc4d"/><path fill="#664500" d="M10.5 17a3 3 0 1 1-6 0 3 3 0 0 1 6 0m21 0a3 3 0 1 1-6 0 3 3 0 0 1 6 0"/><rect width="28" height="6" x="4" y="14" fill="#292f33" rx="3"/><circle cx="11" cy="17" r="4" fill="#fff"/><circle cx="11" cy="17" r="2" fill="#664500"/><circle cx="25" cy="17" r="4" fill="#fff"/><circle cx="25" cy="17" r="2" fill="#664500"/><path fill="#292f33" d="M15 15h6v4h-6z"/><path fill="#664500" d="M18 28c-4 0-6-2-6-2s2 4 6 4 6-4 6-4-2 2-6 2"/></svg>